<?xml version="1.0" encoding="UTF-8"?> <!-- Generator: Adobe Illustrator 25.0.0, SVG Export Plug-In . SVG Version: 6.00 Build 0) --> <svg xmlns="http://www.w3.org/2000/svg" xmlns:xlink="http://www.w3.org/1999/xlink" version="1.1" id="Layer_1" x="0px" y="0px" viewBox="0 0 400 245" style="enable-background:new 0 0 400 245;" xml:space="preserve"> <style type="text/css"> .st0{fill:#A1D33C;} .st1{fill:#FFFFFF;} .st2{fill:#231F20;} </style> <g> <circle class="st0" cx="78.2" cy="122.5" r="76.2"></circle> <g> <path class="st1" d="M59.5,152.4c-1.2,4-2.8,6.2-8.1,6.2c-4.5,0-6.5-1.7-6.5-4.5c0-0.9,0.2-1.9,0.5-2.8l18.1-63.6 c1.2-4,2.8-6.2,8-6.2c4.6,0,6.6,1.7,6.6,4.5c0,1-0.3,1.9-0.6,3L59.5,152.4z"></path> <path class="st1" d="M94.3,152.4c-1.2,4-2.8,6.2-8.1,6.2c-4.5,0-6.5-1.7-6.5-4.5c0-0.9,0.2-1.9,0.5-2.8l18.1-63.6 c1.2-4,2.8-6.2,8-6.2c4.6,0,6.6,1.7,6.6,4.5c0,1-0.3,1.9-0.6,3L94.3,152.4z"></path> </g> <g> <path class="st2" d="M203.3,148.9c0,1,0,1.7-0.4,2.3c-0.4,0.6-1.4,1.1-2.6,1.1c-1.3,0-2.3-0.4-2.7-1.1c-0.4-0.6-0.4-1.4-0.4-2.3 v-37.2h-12.4c-0.9,0-1.6-0.1-2.3-0.5c-0.6-0.4-0.9-1.1-0.9-2.2c0-1.1,0.3-1.9,0.9-2.3c0.6-0.4,1.4-0.5,2.3-0.5h30.8 c0.9,0,1.6,0.1,2.3,0.5c0.6,0.4,0.9,1.1,0.9,2.2c0,1.1-0.3,1.9-0.9,2.3c-0.6,0.4-1.4,0.5-2.3,0.5h-12.3V148.9z"></path> <path class="st2" d="M255.4,105.1c14.4,0,23.4,10,23.4,23.8c0,14.1-9.2,24-23.6,24c-14.4,0-23.4-10-23.4-23.8 C231.7,115,241,105.1,255.4,105.1z M255.4,147.6c10.4,0,17.1-6.8,17.1-18.6c0-11.9-6.8-18.8-17.2-18.8c-10.4,0-17.1,6.8-17.1,18.6 C238.1,140.8,244.8,147.6,255.4,147.6z"></path> <path class="st2" d="M325.7,147.8c-5.7,3.7-12.9,4.5-19.2,4.5c-4.2,0-7.7-0.3-9.5-0.9s-2-1.5-2-3.6v-37.6c0-2.3,0.6-3.2,3.3-3.8 c2-0.4,5.5-0.7,9.5-0.7c7.4,0,13.7,1,18.6,4.5c4.9,3.4,8.6,9.3,8.6,18.5C334.9,138.8,330.6,144.5,325.7,147.8z M301.2,146.7 c0,0,2.3,0.3,6.3,0.3c6.2,0,21.1-0.8,21.1-17.9c0-7.1-2.6-11.7-6.2-14.4c-3.6-2.8-8.2-3.7-14.4-3.7c-4.4,0-6.9,0.5-6.9,0.5 L301.2,146.7L301.2,146.7z"></path> <path class="st2" d="M374.6,105.1c14.4,0,23.4,10,23.4,23.8c0,14.1-9.2,24-23.6,24c-14.4,0-23.4-10-23.4-23.8 C351,115,360.3,105.1,374.6,105.1z M374.6,147.6c10.4,0,17.1-6.8,17.1-18.6c0-11.9-6.8-18.8-17.2-18.8s-17.1,6.8-17.1,18.6 C357.4,140.8,364.2,147.6,374.6,147.6z"></path> </g> </g> </svg> 